<svg width="16" height="17" viewBox="0 0 16 17" fill="none" xmlns="http://www.w3.org/2000/svg">
<path fill-rule="evenodd" clip-rule="evenodd" d="M15.2983 2.65842C15.7545 2.20342 15.7545 1.46375 15.2983 1.00875C14.8433 0.552584 14.1048 0.552584 13.6486 1.00875L7.90398 6.75342L2.15814 1.00875C1.70314 0.552584 0.963476 0.552584 0.508476 1.00875C0.0523096 1.46375 0.0523096 2.20342 0.508476 2.65842L6.25314 8.40425L0.508476 14.1489C0.0523096 14.6051 0.0523096 15.3436 0.508476 15.7986C0.963476 16.2548 1.70314 16.2548 2.15814 15.7986L7.90398 10.0539L13.6486 15.7986C14.1048 16.2548 14.8433 16.2548 15.2983 15.7986C15.7545 15.3436 15.7545 14.6051 15.2983 14.1489L9.55364 8.40425L15.2983 2.65842Z" fill="#6A6E72"/>
</svg>
